<svg width="685" height="540" viewBox="0 0 685 540" fill="none" xmlns="http://www.w3.org/2000/svg">
<path d="M293.374 142.59H276.19C276.19 142.86 276.161 143.099 276.131 143.369C277.837 143.608 279.513 143.878 281.22 144.117C281.19 144.626 281.13 145.135 281.1 145.644L158.867 142.201C158.867 141.333 158.897 140.465 158.927 139.597C184.373 140.435 209.79 141.303 236.045 142.171C233.56 140.944 231.764 140.076 229.07 138.728C236.943 136.603 245.834 146.273 252.271 135.046C248.589 134.597 245.685 134.268 240.805 133.699C244.218 132.711 245.804 132.262 248.229 131.573C242.212 126.664 236.494 122.053 230.896 117.323C229.998 116.575 229.668 115.138 229.099 114.03C233.141 116.665 237.153 119.359 241.224 121.964C245.325 124.598 249.487 127.113 253.648 129.687C254.067 130.466 254.336 131.723 254.935 131.903C256.252 132.292 257.719 132.112 259.126 132.172C268.527 132.591 277.927 133.16 287.327 133.37C289.213 133.4 291.129 132.142 293.015 131.484C292.027 130.226 291.219 128.041 290.021 127.831C280.232 125.945 270.383 124.418 260.533 122.802C256.133 120.706 251.911 118.072 247.331 116.605C240.535 114.449 233.44 113.102 226.495 111.426C220.777 109.121 215.239 105.917 209.311 104.66C191.618 100.858 173.776 97.8344 156.023 94.5114C153.149 93.9725 150.305 93.3438 146.653 92.5954C153.119 90.0208 190.151 96.4872 203.563 99.9898C221.675 104.72 239.967 108.761 257.031 112.803C250.924 107.893 219.25 96.3076 198.743 94.3317C178.117 92.3559 157.58 89.3921 137.013 86.2787C157.34 83.5843 177.248 90.2304 197.606 90.1405C184.852 85.3506 173.027 77.567 158.538 78.8542C158.268 78.6148 157.999 78.3453 157.729 78.1058C151.772 75.8306 145.785 73.5554 139.827 71.2502C140.037 70.6216 140.276 69.9629 140.486 69.3343L158.478 75.1421C158.598 74.9325 158.687 74.693 158.807 74.4834C150.455 70.5317 142.102 66.5501 133.72 62.6284C113.632 53.2581 93.9934 42.6603 73.247 34.9665C54.207 27.9014 33.9995 23.8299 13.4626 30.4759C11.9957 30.9549 10.5887 31.6734 10.1397 31.853C11.2773 35.5353 12.3251 38.9481 13.343 42.3609C12.8041 42.6004 12.2652 42.81 11.7263 43.0495C9.57087 41.6125 7.41538 40.2055 5.34973 38.8284C5.76885 42.2711 5.23001 45.8636 6.69693 48.1987C9.84032 53.2581 14.0016 57.7187 17.8335 62.329C19.3903 64.1851 21.1565 65.8615 24.0904 68.975C13.1035 64.694 -1.59565 46.9114 0.140704 38.8583C1.36812 33.1104 5.73894 26.7039 10.6187 23.4407C16.3067 19.6387 23.9706 17.8724 30.9759 17.124C58.6377 14.25 83.6351 24.2191 108.303 34.7569C129.199 43.6782 149.287 54.7549 170.602 62.4487C200.21 73.1363 230.656 81.5187 260.713 90.9488C265.742 92.5355 270.742 94.3018 275.292 95.8286C269.844 86.4882 264.665 76.6389 258.498 67.4482C255.863 63.5564 250.954 61.2513 247.481 57.8085C244.487 54.8148 243.23 51.372 248.139 48.9471C249.397 51.6714 249.936 55.8626 252.031 56.9104C266.641 64.1551 270.023 80.0817 279.454 91.2183C281.1 93.1642 282.387 95.4394 284.902 99.1217C290.89 95.3197 296.877 91.7871 302.625 87.8354C308.732 83.6442 314.54 79.0638 321.365 74.0044C312.923 71.1005 305.409 68.3463 297.775 65.9514C289.213 63.257 283.824 57.6887 281.609 49.0968C280.022 43.0196 279.244 36.6729 277.118 30.8052C274.544 23.6802 270.862 16.9444 267.898 9.93911C267.269 8.47219 267.808 6.52627 269.305 5.05935C272.448 9.54991 275.741 13.9806 278.705 18.5909C279.783 20.2674 280.352 22.3331 280.831 24.279C282.896 32.9008 284.064 41.8221 287.177 50.0249C288.405 53.2281 293.734 55.0543 297.446 57.09C300.23 58.6168 303.403 59.5149 306.457 60.6824C309.361 44.3069 313.253 39.3972 324.689 37.8405C321.635 33.799 321.695 30.8053 326.575 27.9014C335.436 22.6324 344.267 22.6923 353.488 26.1949C354.147 26.4344 355.194 26.644 355.344 27.123C358.218 35.7449 367.079 38.9481 371.869 45.654C374.174 48.8573 374.624 53.3778 375.941 57.3594C387.976 54.0065 393.364 47.0012 394.143 32.841C394.232 31.1944 394.442 29.4581 394.143 27.8714C392.466 19.8483 395.639 13.6513 400.968 7.93331C402.764 5.9874 403.363 2.9039 404.65 0C405.878 0.658616 407.435 1.46691 409.53 2.54465C408.063 4.37081 406.896 5.7479 405.788 7.18488C401.777 12.4538 398.483 17.7227 398.932 24.9975C399.322 31.2543 398.304 37.6309 397.555 43.9177C396.148 55.6231 387.407 61.2513 378.186 66.1909C373.306 68.7954 368.127 70.891 361.481 73.9446C373.995 82.0575 386.03 89.8711 398.992 98.3133C401.776 93.7629 404.022 90.7991 405.489 87.5061C409.021 79.6027 412.105 71.5197 415.607 63.6163C416.266 62.1194 417.823 60.4729 419.35 59.964C426.026 57.6588 429.887 53.3179 430.336 45.7738C434.827 48.1987 436.324 50.8631 432.372 54.5453C429.468 57.2696 426.175 59.5748 423.361 62.3889C421.655 64.0953 420.248 66.2507 419.26 68.4661C416.356 75.0822 413.781 81.7881 410.518 89.7813C413.841 88.5539 416.446 87.5659 419.05 86.6379C447.7 76.4892 476.709 67.2387 504.88 55.8925C522.632 48.7376 539.098 38.4691 556.132 29.5778C584.512 14.759 613.102 0.478984 646.303 1.34716C655.373 1.58666 664.145 3.6523 671.39 11.1366C661.99 17.8125 651.302 4.84979 643.458 16.9444C643.249 15.8966 643.039 14.8488 642.83 13.8309C643.878 13.0825 644.925 12.364 647.32 10.6576C625.766 12.3041 607.175 18.1419 589.452 27.1828C587.835 27.9911 586.039 28.4103 584.333 29.009C584.093 28.7396 583.854 28.4702 583.614 28.2007C587.536 25.8058 591.218 22.8719 595.409 21.1356C605.229 17.124 615.288 13.7112 625.227 10.0589C635.375 9.2805 645.524 8.53206 655.673 7.75369C655.613 7.33457 655.583 6.88552 655.523 6.4664C645.434 7.69382 635.346 8.8913 625.257 10.1187C614.958 13.0526 604.271 15.0284 594.451 19.0699C567.807 30.0568 543.529 45.3247 520.237 62.2392C519.729 63.5863 519.22 64.9036 518.711 66.2507C523.501 64.9934 528.321 63.766 533.11 62.5086C533.26 62.8679 533.41 63.2271 533.589 63.5564C529.518 65.6819 525.447 67.7775 521.375 69.9031C513.502 71.9987 505.598 74.0643 497.725 76.1599C497.994 77.0281 498.294 77.8963 498.563 78.7345C506.137 75.7707 513.741 72.807 521.315 69.8133C533.44 65.7718 545.714 62.0595 557.659 57.539C566.939 54.0364 575.831 49.4561 584.932 45.4445C586.668 44.6661 588.614 44.3667 590.769 44.8457C558.557 62.0595 524.548 74.3637 489.163 83.5843C499.371 81.7282 509.49 79.453 519.758 78.1058C530.685 76.6688 541.702 75.8007 552.689 75.2917C563.257 74.7828 573.885 74.8427 583.614 79.5129C570.592 78.8842 557.569 76.6389 544.906 77.9561C524.339 80.1116 504.072 84.7818 483.624 88.1048C461.471 91.6973 441.982 102.325 421.834 111.126C431.115 108.432 440.395 105.798 449.646 103.043C461.86 99.3911 474.015 95.5891 486.229 91.9667C488.654 91.2482 491.288 91.1584 493.833 90.7692C494.073 91.0387 494.312 91.3081 494.551 91.5775C484.792 95.2298 474.943 98.7025 465.273 102.624C461.86 104.001 458.866 106.456 455.693 108.402C454.825 107.744 453.687 106.336 453.119 106.546C444.018 109.749 435.067 113.372 425.876 116.365C422.134 117.593 424.139 119.389 424.469 121.215C421.086 120.856 417.493 119.509 414.41 120.287C403.183 123.131 392.107 126.664 381.03 129.987C378.845 130.645 376.809 131.663 374.683 132.531L375.522 135.555C383.275 134.148 390.969 132.412 398.753 131.394C407.944 130.166 416.775 124.838 426.534 129.119C429.977 130.645 430.037 127.652 429.947 125.257C431.923 124.838 433.989 124.658 435.845 123.969C437.881 123.221 439.737 121.994 441.653 121.006C439.886 123.371 438.12 125.766 436.144 128.43C438.898 128.28 441.233 128.161 443.599 128.041C443.688 128.49 443.778 128.939 443.838 129.388C440.455 130.286 437.102 131.184 433.24 132.232C434.977 137.022 437.911 138.669 442.82 137.052C446.742 135.765 450.724 134.687 455.334 134.956C452.759 136.333 450.185 137.711 446.652 139.597H465.722C465.722 140.255 465.662 140.914 465.632 141.602H400.579C410.817 133.759 423.002 142.441 432.642 132.98C412.943 128.041 396.268 136.154 378.905 137.591C381.21 148.039 383.904 150.164 393.993 152.17C412.763 155.912 431.384 160.553 450.215 163.935C468.626 167.199 487.157 170.192 505.748 171.749C528.291 173.635 551.013 173.276 573.585 174.982C598.283 176.868 623.012 178.934 646.692 187.406C661.331 192.675 672.947 201.896 683.005 213.362C683.514 213.93 683.544 214.948 684.173 216.984C682.287 216.086 681.179 215.876 680.64 215.218C671.18 203.632 658.786 197.166 644.417 193.872C635.106 191.747 625.975 188.574 616.575 186.867C605.528 184.861 594.332 183.095 583.135 182.796C560.323 182.167 537.481 182.496 514.669 182.706C509.43 182.766 504.191 183.933 498.922 186.209C506.766 186.209 514.609 186.209 522.453 186.209C545.953 186.209 569.424 185.909 592.925 186.328C603.403 186.508 613.881 188.005 624.329 189.172C626.245 189.382 628.041 190.879 629.897 191.807C629.657 192.076 629.418 192.346 629.179 192.615C601.547 187.197 573.585 190.729 545.804 189.502C532.512 188.903 519.16 189.412 505.449 189.412C516.615 191.148 527.542 192.825 538.499 194.501C517.393 196.986 498.204 186.688 478.056 186.149C458.387 185.61 439.407 181.149 419.619 181.119C444.048 188.783 468.476 196.447 492.905 204.111C492.606 205.039 492.336 205.937 492.037 206.865C487.786 205.518 483.535 204.111 479.254 202.824C469.883 200.01 460.573 197.136 451.143 194.591C449.107 194.052 446.682 194.89 444.407 195.07C442.521 194.232 440.695 193.244 438.749 192.555C436.593 191.777 434.109 191.657 432.222 190.52C430.277 189.322 428.899 187.226 427.253 185.52C427.672 187.496 429.798 188.184 430.277 189.502C432.971 196.896 438.15 197.225 444.437 195.01C442.91 196.806 441.713 199.381 439.797 200.159C438.09 200.848 435.156 200.159 433.51 198.992C429.378 196.088 426.085 190.699 421.685 189.741C409.65 187.107 399.741 179.922 388.395 176.12C387.437 175.79 385.85 177.347 384.563 178.006C380.91 169.713 371.839 171.031 366.091 166.45L364.924 168.636C371.48 171.749 378.066 174.833 384.623 177.946C389.263 181.359 393.903 184.802 398.543 188.214C398.244 188.783 397.974 189.352 397.675 189.921C390.999 186.119 384.323 182.347 377.048 178.215C376.599 180.64 376.24 182.616 375.881 184.652C369.534 187.676 368.277 181.179 364.565 178.215C361.781 188.933 358.248 199.052 356.781 209.5C355.733 216.774 357.29 224.468 358.068 231.952C359.775 248.148 362.14 264.285 363.397 280.51C364.205 291.198 363.218 302.005 363.667 312.723C363.996 320.866 365.822 328.979 366.062 337.121C366.301 345.085 365.163 353.078 365.014 361.041C364.804 371.609 365.133 382.177 364.954 392.745C364.834 398.971 364.026 405.168 363.786 411.395C363.637 415.377 363.816 419.418 364.056 423.4C364.176 425.496 364.984 427.561 364.924 429.627C364.565 444.685 363.996 459.744 363.697 474.832C363.637 477.347 365.104 479.921 364.834 482.376C364.205 488.543 362.918 494.68 362.02 500.817C360.583 510.727 359.296 520.636 357.799 530.545C357.41 533.149 356.512 535.664 355.853 538.209L352.829 537.909C353.249 531.473 353.308 525.006 354.147 518.63C354.895 512.972 354.266 510.966 349.985 510.487C350.854 519.887 351.722 529.258 352.59 538.658L350.404 539.257C349.387 536.921 347.83 534.676 347.411 532.221C346.153 524.857 345.495 517.402 344.297 510.008C343.579 505.488 342.112 501.057 341.304 496.536C340.256 490.609 338.909 484.621 338.759 478.634C338.4 462.198 338.998 445.763 338.549 429.328C338.04 410.437 336.723 391.577 335.945 372.687C335.286 356.461 334.717 340.235 334.448 324.009C334.358 318.171 335.915 312.304 335.645 306.466C335.166 295.299 333.31 284.133 333.191 272.966C333.041 258.776 334.238 244.616 334.418 230.426C334.478 224.289 334.089 218.002 332.742 212.044C329.957 199.62 326.395 187.376 322.922 174.144C319.899 178.515 317.234 182.317 314.6 186.119C314.121 185.789 313.642 185.46 313.163 185.131C313.582 182.377 314.031 179.593 314.45 176.838C313.761 176.629 313.103 176.419 312.414 176.21C311.576 178.036 310.738 179.832 309.9 181.658C309.75 181.149 309.6 180.64 309.48 180.131C306.487 181.239 303.403 182.197 300.499 183.544C296.608 185.34 292.865 187.466 289.033 189.472C294.123 185.55 299.032 181.359 304.301 177.766C310.199 173.755 316.426 170.282 322.533 166.57C312.354 169.923 303.373 175.491 293.584 178.664C279.633 183.215 272.808 194.471 264.904 205.039C262.539 207.105 256.222 206.686 260.114 212.643C258.408 213.332 256.552 214.769 254.995 214.499C252.6 214.11 250.355 212.583 248.079 211.535C248.978 210.817 249.876 210.098 250.804 209.41C253.348 208.003 255.893 206.626 258.408 205.219C258.318 204.59 258.228 203.961 258.168 203.363C255.175 202.584 252.061 202.165 249.277 200.968C246.702 199.86 244.457 197.974 242.062 196.417C245.206 197.255 248.319 198.154 251.462 198.902C259.525 200.858 265.333 197.864 268.886 189.921C260.384 191.358 251.971 192.765 243.589 194.322C242.99 194.441 242.601 195.729 242.122 196.477C237.482 196.597 232.872 196.717 228.231 196.836C227.992 196.567 227.752 196.297 227.513 196.028C242.421 190.819 257.33 185.61 272.269 180.431C252.361 183.484 231.794 183.574 213.652 193.932C212.095 194.83 210.089 194.95 208.323 195.429C208.084 195.16 207.844 194.89 207.605 194.621L215.688 189.592L215.209 187.406C204.85 189.142 194.462 190.849 184.104 192.585C183.864 192.316 183.625 192.046 183.386 191.777C169.315 192.046 155.245 192.196 141.174 192.585C127.732 192.944 114.261 194.202 100.849 193.813C78.935 193.154 57.9192 197.136 37.2327 203.812C35.4664 204.38 33.6403 204.77 31.8441 205.159C31.4848 205.219 31.0058 204.829 29.2096 204.021C36.0951 201.626 41.9628 199.59 47.8304 197.555C47.591 196.926 47.3215 196.327 47.082 195.699C37.2327 199.59 27.2637 203.183 17.6239 207.584C14.9296 208.811 13.4926 212.583 11.1575 214.858C9.06193 216.894 6.51723 218.511 4.18214 220.277C3.52352 219.559 2.86498 218.84 2.20637 218.092C5.67907 213.9 8.49309 208.811 12.7142 205.668C28.1318 194.202 45.5253 187.526 64.685 184.562C95.4304 179.802 126.325 178.365 157.37 177.198C178.745 176.419 200.15 172.467 221.256 168.516C246.463 163.786 271.43 157.679 296.368 151.781C299.152 151.122 301.308 147.71 303.972 145.404C299.631 144.177 296.488 143.279 293.344 142.381C297.685 141.932 301.996 141.453 306.337 141.004L306.277 138.219C290.949 136.872 275.652 135.405 260.324 134.358C258.288 134.208 256.133 136.094 254.007 137.022C256.222 138.219 258.378 140.375 260.653 140.465C267.179 140.764 273.766 139.926 280.322 140.195C284.723 140.375 289.063 141.662 293.434 142.441L293.374 142.59ZM244.906 169.564C245.565 169.803 246.253 170.342 246.852 170.222C261.282 167.827 275.741 165.492 290.111 162.738C291.458 162.469 292.297 159.535 293.374 157.828C292.835 157.289 292.267 156.78 291.728 156.242C281.1 158.786 270.443 161.151 259.905 163.995C254.785 165.372 249.936 167.707 244.966 169.623C242.451 169.264 239.817 168.216 237.422 168.636C224.579 170.851 211.766 173.366 198.983 175.94C197.157 176.299 195.51 177.677 193.804 178.575C203.533 177.497 212.664 175.431 221.825 173.605C229.489 172.078 237.242 170.881 244.936 169.534L244.906 169.564ZM59.3562 194.292C60.1346 194.471 60.9428 194.83 61.7212 194.771C79.6535 193.423 97.5559 191.507 115.518 190.729C138.121 189.741 160.753 189.651 183.356 189.142C184.463 189.142 185.571 188.544 188.595 187.705C143.869 183.993 101.448 184.622 59.3562 194.292ZM504.58 61.3411C504.521 60.892 504.431 60.4429 504.371 59.9939C476.44 70.0228 448.508 80.0218 420.427 90.0807C421.355 92.9247 422.044 95.0203 422.553 96.577C450.125 84.7219 477.368 73.0165 504.58 61.3411ZM254.456 106.935C253.079 100.559 184.553 73.3458 172.009 73.7949C199.941 85.0213 226.734 95.7986 254.456 106.935ZM506.227 66.7597C505.898 65.9813 505.568 65.2029 505.209 64.4246C478.445 76.0102 451.682 87.5959 424.918 99.2115C425.427 100.379 425.936 101.576 426.445 102.744L506.197 66.7597H506.227ZM385.94 112.264C389.053 112.264 391.328 112.893 392.975 112.144C399.98 108.971 406.566 104.84 413.721 102.145C420.128 99.7503 420.996 96.8764 416.086 90.41C412.135 93.8228 408.393 97.056 404.62 100.289C402.585 102.055 399.92 105.678 398.543 105.259C388.245 102.085 383.365 110.588 376.51 114.689C375.103 115.527 374.115 117.084 372.947 118.281C377.947 116.306 386 119.15 385.91 112.204L385.94 112.264ZM172.668 69.7234C177.937 70.9209 182.008 71.37 185.721 72.807C207.515 81.1295 229.249 89.5418 250.894 98.2235C255.324 99.9898 257.839 100.11 258.258 95.0203C230.656 85.7997 203.354 76.6688 176.021 67.6278C175.542 67.4782 174.674 68.4361 172.698 69.7234H172.668ZM68.3972 28.6797C97.7954 42.5406 126.176 55.8925 154.526 69.2445C127.822 52.1803 99.9808 37.571 68.3972 28.6797ZM293.404 115.497C294.751 108.642 301.427 110.438 261.551 94.8407C260.982 97.056 260.414 99.2414 259.815 101.666C270.981 106.277 282.118 110.857 293.404 115.527V115.497ZM400.579 166.809C400.459 167.468 400.369 168.157 400.25 168.815C429.199 176.15 459.525 174.204 488.564 181C488.684 180.221 488.804 179.443 488.893 178.664C459.435 174.713 430.007 170.761 400.549 166.809H400.579ZM387.377 154.835C387.227 155.403 387.047 156.002 386.898 156.571C402.675 166.031 420.337 166.36 437.671 168.276C437.881 167.318 438.09 166.36 438.3 165.372C421.325 161.87 404.351 158.337 387.407 154.835H387.377ZM190.181 183.454C191.379 177.916 187.098 178.335 183.266 178.545C166.92 179.413 150.574 180.431 134.259 181.299C123.661 181.868 113.033 182.347 102.436 182.886C102.436 183.065 102.436 183.275 102.436 183.454H190.181ZM494.671 180.401H578.375C566.4 178.305 554.426 177.677 542.481 177.198C528.47 176.629 514.43 176.18 500.419 175.611C496.497 175.461 493.743 176.299 494.671 180.401ZM293.284 103.702C299.541 106.786 305.11 109.51 311.816 112.803C312.923 104.78 313.911 97.6547 315.109 89.2424C306.936 94.661 300.41 98.972 293.314 103.702H293.284ZM168.477 71.8789C172.758 66.58 167.728 65.2628 164.375 63.6762C157.61 60.5028 150.664 57.7785 143.839 54.695C132.283 49.486 120.787 44.1572 109.261 38.8883C109.201 39.0679 109.112 39.2475 109.052 39.4271C128.69 50.1446 148.329 60.892 168.477 71.8789ZM510.029 64.9934C525.776 54.6052 541.104 44.4565 556.461 34.3378C542.181 41.1934 528.081 48.2885 514.19 55.7428C511.316 57.2696 506.706 58.8563 510.029 65.0233V64.9934ZM388.365 101.636C381.779 97.7146 376.51 94.5413 370.043 90.6794C370.732 98.2235 371.271 104.45 371.929 111.695C378.186 107.863 382.856 104.989 388.365 101.636ZM194.582 186.119C194.642 186.538 194.702 186.927 194.732 187.346C222.034 183.963 249.307 180.551 276.61 177.168C276.55 176.599 276.46 176.06 276.4 175.491C249.127 179.054 221.855 182.586 194.582 186.149V186.119ZM369.474 162.528C369.205 163.127 368.906 163.756 368.636 164.355C380.671 169.713 392.676 175.102 404.71 180.461C405.04 179.712 405.399 178.994 405.728 178.245C395.789 168.396 381.15 168.606 369.474 162.498V162.528ZM423.331 103.882L422.253 101.846C406.656 109.001 391.059 116.156 375.462 123.311C391.837 117.772 408.572 113.102 423.331 103.852V103.882ZM440.904 165.881C440.755 166.69 440.635 167.528 440.485 168.336C457.22 171.001 473.985 173.665 490.72 176.299C490.839 175.731 490.959 175.132 491.049 174.563C474.314 171.659 457.609 168.785 440.874 165.881H440.904ZM335.765 50.7134C333.849 49.4261 332.113 47.4802 330.017 47.0311C327.113 46.4324 323.97 46.7617 320.976 47.1808C320.408 47.2706 319.42 50.0548 319.899 50.7134C321.695 53.3179 323.611 56.5212 326.245 57.5989C327.622 58.1677 330.676 54.9046 332.891 53.258C333.939 52.5096 334.807 51.5516 335.795 50.6835L335.765 50.7134ZM289.632 169.534C289.482 168.695 289.363 167.857 289.213 167.019C275.412 169.234 261.581 171.48 247.78 173.695C247.93 174.503 248.05 175.341 248.199 176.15C262 173.934 275.831 171.719 289.632 169.504V169.534ZM291.818 120.317C291.937 119.808 292.057 119.299 292.177 118.76C281.579 114.21 271.011 109.63 260.354 105.229C259.456 104.84 257.959 105.857 256.731 106.247C256.731 106.905 256.701 107.564 256.672 108.223C268.377 112.234 280.112 116.276 291.818 120.287V120.317ZM475.032 182.856L475.182 181.508C454.915 179.413 434.617 177.317 414.35 175.252C414.32 175.671 414.26 176.09 414.23 176.539C434.498 178.664 454.765 180.76 475.032 182.886V182.856ZM196.019 182.017C196.109 182.437 196.169 182.856 196.258 183.275C212.095 180.76 227.932 178.245 243.769 175.731C243.649 174.982 243.499 174.264 243.379 173.515C227.603 176.359 211.826 179.173 196.019 182.017ZM318.791 163.726C318.611 163.007 318.432 162.289 318.252 161.57C309.121 168.276 295.799 166.36 289.004 177.856C298.943 173.126 308.852 168.426 318.791 163.696V163.726ZM408.482 118.79C408.273 117.952 408.033 117.084 407.824 116.246C396.687 120.048 385.551 123.82 374.414 127.622C374.534 128.041 374.653 128.46 374.773 128.849C386 125.496 397.256 122.143 408.482 118.79ZM297.446 110.168C296.368 116.964 301.098 120.167 311.726 119.838C306.666 116.395 302.116 113.342 297.446 110.168ZM295.62 134.358H311.456C306.068 133.669 300.709 126.963 295.62 134.358ZM305.02 128.4C305.08 128.131 305.14 127.861 305.199 127.592C294.841 124.628 284.453 121.694 274.095 118.73C273.975 119.209 273.855 119.718 273.736 120.197C284.154 122.922 294.602 125.646 305.02 128.4ZM258.288 188.035C258.438 188.514 258.587 189.023 258.737 189.502C264.305 187.915 269.904 186.328 275.472 184.742C275.292 184.143 275.113 183.544 274.933 182.945C269.395 184.652 263.826 186.328 258.288 188.035Z" fill="#281F1F"/>
<path d="M264.874 205.219C272.778 194.651 279.603 183.395 293.554 178.844C303.313 175.671 312.324 170.102 322.503 166.75C316.426 170.462 310.169 173.934 304.271 177.946C298.973 181.538 294.063 185.73 289.004 189.651C287.656 190.52 286.339 191.418 284.992 192.286C283.705 192.675 282.058 192.675 281.22 193.483C276.43 198.333 271.73 203.243 264.844 205.099L264.904 205.159L264.874 205.219Z" fill="#D9D9D9"/>
<path d="M457.489 270.032C453.957 268.625 449.975 267.847 446.952 265.692C427.373 251.681 407.854 237.611 388.754 223.001C385.341 220.397 384.054 215.068 381.779 210.997C382.766 210.338 383.784 209.679 384.772 209.021C387.646 213.152 390.34 217.433 393.454 221.385C395.55 224.049 398.004 226.564 400.729 228.6C408.183 234.138 415.757 239.556 423.451 244.706C426.026 246.442 429.169 247.34 431.714 248.987C438.33 258.117 448.867 262.339 458.298 267.967C458.028 268.655 457.759 269.344 457.489 270.032Z" fill="#281F1F"/>
<path d="M441.623 121.125C439.707 122.143 437.851 123.341 435.815 124.089C433.929 124.778 431.893 124.957 429.917 125.376C428.091 124.029 426.265 122.682 424.439 121.335C424.08 119.509 422.104 117.713 425.846 116.485C435.007 113.491 443.988 109.869 453.089 106.666C453.657 106.456 454.795 107.863 455.663 108.522C450.993 112.713 446.323 116.904 441.653 121.095L441.623 121.125Z" fill="#D9D9D9"/>
<path d="M253.618 129.657C249.487 127.083 245.325 124.538 241.194 121.934C237.123 119.329 233.111 116.665 229.07 114C228.201 113.132 227.333 112.264 226.435 111.396C233.38 113.072 240.476 114.419 247.271 116.575C251.882 118.042 256.103 120.676 260.473 122.772C258.168 125.077 255.893 127.352 253.588 129.657H253.618Z" fill="#D9D9D9"/>
<path d="M206.168 192.495C194.372 195.848 182.727 200.01 170.722 202.375C150.335 206.356 129.738 209.41 109.171 212.433C103.364 213.272 97.3164 212.853 91.4188 212.463C89.3532 212.314 87.3773 210.547 85.6709 209.081C127.373 212.793 166.351 200.339 205.719 190.4C205.868 191.088 206.018 191.807 206.198 192.495H206.168Z" fill="#281F1F"/>
<path d="M598.104 205.668C556.252 210.518 516.765 200.459 477.517 188.753C517.364 196.956 556.761 208.302 598.104 205.668Z" fill="#281F1F"/>
<path d="M158.478 78.8243C165.962 80.9798 173.446 83.1652 180.931 85.3207C181.559 85.5003 182.188 85.7697 182.577 86.8774C153.269 81.6983 124.469 74.8127 96.8674 63.5265C97.0769 62.7182 97.3164 61.9398 97.526 61.1315C100.071 62.0296 102.615 63.0175 105.19 63.8258C120.548 68.5858 135.875 73.3758 151.293 77.9561C153.239 78.5249 155.514 78.0459 157.67 78.0759C157.939 78.3154 158.208 78.5848 158.478 78.8243Z" fill="#281F1F"/>
<path d="M264.814 205.129C271.73 203.273 276.4 198.363 281.19 193.513C281.998 192.675 283.675 192.675 284.962 192.316C282.507 195.13 280.501 198.543 277.538 200.608C268.377 207.075 269.065 216.086 269.754 225.306C284.932 227.851 288.435 225.546 291.877 211.745C291.967 214.02 292.536 216.385 292.057 218.511C291.578 220.666 290.171 222.672 288.974 224.618C287.716 226.654 286.249 228.57 285.561 229.528H261.551C266.82 226.025 267.628 219.828 267.239 213.451C267.06 210.607 265.653 207.853 264.814 205.069V205.129Z" fill="#281F1F"/>
<path d="M518.621 66.3406C519.13 64.9934 519.639 63.6762 520.148 62.329C532.572 55.7129 545.025 49.1567 557.449 42.5106C566.191 37.8405 574.843 33.0206 583.524 28.2905C583.764 28.56 584.003 28.8294 584.243 29.0988C575.771 34.3677 567.478 39.9959 558.796 44.8457C545.564 52.2701 532.033 59.1856 518.621 66.3406Z" fill="#281F1F"/>
<path d="M296.907 217.912C299.511 225.067 295.32 228.54 291.009 232.072C285.531 236.593 280.142 241.233 274.724 245.813C274.035 245.155 273.346 244.496 272.628 243.837C275.771 240.095 278.406 233.898 282.178 233.09C290.321 231.324 292.656 226.055 294.931 219.708C295.141 219.139 295.919 218.75 296.877 217.912H296.907Z" fill="#281F1F"/>
<path d="M219.909 278.415C199.043 280.54 178.176 279.912 157.31 276.319H219.729L219.909 278.415Z" fill="#281F1F"/>
<path d="M416.476 225.007C416.835 220.756 417.074 217.583 417.314 214.559C419.08 218.541 420.068 223.031 422.703 226.085C425.187 228.959 429.408 230.336 432.552 233.33C423.002 229.408 413.811 224.348 402.435 228.869C402.166 227.552 401.866 226.115 401.597 224.648C403.034 224.438 404.501 223.989 405.938 224.049C409.201 224.199 412.434 224.618 416.476 225.007Z" fill="#281F1F"/>
<path d="M493.773 90.9189L530.626 81.8779C530.865 82.9257 531.075 83.9735 531.314 85.0213C519.04 87.2666 506.766 89.4819 494.492 91.7272C494.252 91.4578 494.013 91.1883 493.773 90.9189Z" fill="#281F1F"/>
<path d="M208.233 195.609C198.504 200.069 188.774 204.53 179.075 208.991C178.655 207.913 178.206 206.865 177.787 205.787C187.696 202.135 197.606 198.453 207.515 194.801C207.754 195.07 207.994 195.339 208.233 195.609Z" fill="#281F1F"/>
<path d="M141.294 273.745C129.469 271.739 117.644 269.763 105.819 267.757C105.938 267.069 106.058 266.38 106.178 265.662C118.093 267.548 130.008 269.434 141.923 271.32C141.713 272.128 141.534 272.936 141.324 273.745H141.294Z" fill="#281F1F"/>
<path d="M504.341 273.804C493.773 273.804 482.996 279.702 471.051 273.804H504.341Z" fill="#281F1F"/>
<path d="M511.436 208.512C501.976 204.44 492.516 200.399 483.056 196.327C483.355 195.609 483.624 194.92 483.924 194.202C493.504 198.183 503.084 202.195 512.634 206.177C512.214 206.955 511.825 207.733 511.406 208.512H511.436Z" fill="#281F1F"/>
<path d="M228.171 197.016C220.448 200.129 212.724 203.243 205 206.386C204.641 205.338 204.252 204.261 203.892 203.213C211.736 200.878 219.579 198.543 227.453 196.208C227.692 196.477 227.932 196.746 228.171 197.016Z" fill="#281F1F"/>
<path d="M629.837 191.927C638.728 194.202 647.62 196.447 656.511 198.722C656.242 199.71 655.942 200.698 655.673 201.686C646.841 198.722 637.98 195.729 629.149 192.765C629.388 192.495 629.628 192.226 629.867 191.957L629.837 191.927Z" fill="#281F1F"/>
<path d="M184.044 192.765C180.661 193.932 177.368 195.489 173.895 196.178C168.058 197.315 162.13 197.914 156.233 198.722C156.143 198.094 156.023 197.435 155.933 196.806C165.064 195.19 174.195 193.543 183.326 191.927C183.565 192.196 183.805 192.465 184.044 192.735V192.765Z" fill="#281F1F"/>
<path d="M59.3562 194.292C101.448 184.652 143.869 184.023 188.595 187.705C185.571 188.544 184.463 189.112 183.356 189.142C160.753 189.681 138.091 189.741 115.518 190.729C97.5559 191.507 79.6535 193.423 61.7212 194.771C60.9428 194.83 60.1346 194.441 59.3562 194.292Z" fill="#D9D9D9"/>
<path d="M504.58 61.3411C477.338 73.0465 450.125 84.7518 422.553 96.577C422.044 95.0203 421.355 92.8947 420.427 90.0807C448.508 80.0218 476.44 69.9929 504.371 59.9939C504.431 60.4429 504.521 60.892 504.58 61.3411Z" fill="#D9D9D9"/>
<path d="M583.554 28.2905C574.873 33.0505 566.191 37.8405 557.479 42.5106C545.085 49.1567 532.602 55.7428 520.178 62.329C543.469 45.4445 567.748 30.1466 594.392 19.1597C604.211 15.1182 614.898 13.1124 625.197 10.2085L625.137 10.1487C615.168 13.801 605.139 17.2138 595.32 21.2254C591.129 22.9318 587.446 25.8956 583.524 28.2905H583.554Z" fill="#D9D9D9"/>
<path d="M424.439 121.365C426.265 122.712 428.091 124.059 429.917 125.406C430.007 127.801 429.947 130.765 426.504 129.268C416.745 124.987 407.914 130.316 398.723 131.544C390.939 132.561 383.215 134.298 375.492 135.705L374.653 132.681C376.779 131.813 378.815 130.795 381 130.136C392.107 126.784 403.154 123.281 414.38 120.437C417.464 119.658 421.086 121.006 424.439 121.365Z" fill="#D9D9D9"/>
<path d="M172.009 73.7949C199.941 85.0213 226.734 95.7986 254.456 106.935C253.079 100.559 184.553 73.3458 172.009 73.7949Z" fill="#D9D9D9"/>
<path d="M506.227 66.7597L426.475 102.744C425.966 101.576 425.457 100.379 424.948 99.2115C451.712 87.6258 478.475 76.0402 505.239 64.4246C505.568 65.2029 505.898 65.9813 506.257 66.7597H506.227Z" fill="#D9D9D9"/>
<path d="M385.94 112.264C386.03 119.209 377.976 116.365 372.977 118.341C374.145 117.114 375.132 115.587 376.539 114.749C383.395 110.647 388.275 102.115 398.573 105.319C399.95 105.738 402.585 102.115 404.65 100.349C408.393 97.1159 412.165 93.8827 416.116 90.4698C421.026 96.9063 420.128 99.7803 413.751 102.205C406.596 104.9 399.98 109.031 393.005 112.204C391.358 112.953 389.083 112.324 385.97 112.324L385.94 112.264Z" fill="#D9D9D9"/>
<path d="M172.668 69.7234C174.674 68.4361 175.512 67.4782 175.991 67.6279C203.324 76.6688 230.656 85.7997 258.228 95.0203C257.809 100.08 255.264 99.9898 250.864 98.2235C229.219 89.5418 207.485 81.1295 185.691 72.807C181.978 71.3999 177.937 70.9509 172.638 69.7234H172.668Z" fill="#D9D9D9"/>
<path d="M68.3972 28.6797C99.9808 37.571 127.822 52.2103 154.526 69.2445C126.146 55.8925 97.7954 42.5106 68.3972 28.6797Z" fill="#D9D9D9"/>
<path d="M293.374 142.59C289.003 141.812 284.663 140.525 280.262 140.345C273.736 140.076 267.149 140.914 260.593 140.614C258.318 140.495 256.163 138.369 253.947 137.172C256.043 136.244 258.228 134.358 260.264 134.507C275.592 135.585 290.919 137.022 306.217 138.369L306.277 141.153C301.936 141.602 297.625 142.081 293.284 142.53L293.374 142.59Z" fill="#D9D9D9"/>
<path d="M293.404 115.497C282.118 110.857 270.981 106.247 259.815 101.636C260.444 99.2414 260.982 97.0261 261.551 94.8107C301.397 110.408 294.721 108.612 293.404 115.467V115.497Z" fill="#D9D9D9"/>
<path d="M253.618 129.657L260.503 122.772C270.353 124.418 280.202 125.915 289.991 127.801C291.189 128.041 291.997 130.196 292.985 131.454C291.099 132.112 289.183 133.37 287.297 133.34C277.897 133.13 268.497 132.561 259.096 132.142C257.689 132.082 256.222 132.262 254.905 131.873C254.306 131.693 254.037 130.436 253.618 129.657Z" fill="#D9D9D9"/>
<path d="M244.966 169.653C249.936 167.737 254.815 165.402 259.905 164.025C270.443 161.181 281.1 158.816 291.728 156.272C292.267 156.81 292.835 157.319 293.374 157.858C292.297 159.565 291.458 162.528 290.111 162.768C275.741 165.522 261.282 167.857 246.852 170.252C246.253 170.342 245.565 169.833 244.906 169.594L244.966 169.653Z" fill="#D9D9D9"/>
<path d="M400.579 166.809C430.037 170.761 459.465 174.713 488.923 178.664C488.804 179.443 488.684 180.221 488.594 181C459.555 174.204 429.229 176.18 400.28 168.815C400.399 168.157 400.489 167.468 400.609 166.809H400.579Z" fill="#D9D9D9"/>
<path d="M387.377 154.835C404.351 158.337 421.325 161.87 438.27 165.372C438.06 166.33 437.851 167.288 437.641 168.276C420.308 166.36 402.645 166.031 386.868 156.571C387.018 156.002 387.197 155.403 387.347 154.835H387.377Z" fill="#D9D9D9"/>
<path d="M190.181 183.454H102.436C102.436 183.275 102.436 183.065 102.436 182.886C113.033 182.347 123.661 181.868 134.259 181.299C150.604 180.401 166.95 179.413 183.266 178.545C187.098 178.335 191.379 177.916 190.181 183.454Z" fill="#D9D9D9"/>
<path d="M494.671 180.401C493.713 176.329 496.497 175.461 500.419 175.611C514.43 176.15 528.47 176.599 542.481 177.198C554.456 177.677 566.4 178.305 578.375 180.401H494.671Z" fill="#D9D9D9"/>
<path d="M293.284 103.702C300.41 98.972 306.936 94.661 315.079 89.2424C313.911 97.6547 312.923 104.78 311.786 112.803C305.08 109.51 299.511 106.786 293.255 103.702H293.284Z" fill="#D9D9D9"/>
<path d="M168.477 71.8789C148.329 60.8621 128.69 50.1446 109.052 39.4271C109.112 39.2475 109.201 39.0679 109.261 38.8883C120.787 44.1572 132.283 49.486 143.839 54.695C150.634 57.7785 157.61 60.4729 164.375 63.6762C167.698 65.2329 172.758 66.58 168.477 71.8789Z" fill="#D9D9D9"/>
<path d="M510.029 64.9934C506.706 58.8563 511.316 57.2696 514.19 55.7129C528.081 48.2586 542.151 41.1934 556.461 34.3079C541.104 44.4266 525.776 54.5753 510.029 64.9634L510.029 64.9934Z" fill="#D9D9D9"/>
<path d="M388.365 101.636C382.856 105.019 378.186 107.863 371.929 111.695C371.271 104.45 370.732 98.2235 370.043 90.6794C376.51 94.5413 381.808 97.7146 388.365 101.636Z" fill="#D9D9D9"/>
<path d="M194.582 186.119C221.855 182.556 249.127 179.024 276.4 175.461C276.46 176.03 276.55 176.569 276.61 177.138C249.307 180.521 222.034 183.933 194.732 187.316C194.672 186.897 194.612 186.508 194.582 186.089V186.119Z" fill="#D9D9D9"/>
<path d="M242.062 196.657C242.541 195.908 242.93 194.621 243.529 194.501C251.911 192.944 260.354 191.567 268.826 190.1C265.273 198.024 259.466 201.017 251.403 199.082C248.259 198.303 245.146 197.435 242.002 196.597L242.062 196.657Z" fill="#D9D9D9"/>
<path d="M369.474 162.528C381.15 168.636 395.759 168.426 405.728 178.275C405.399 179.024 405.04 179.742 404.71 180.491C392.676 175.132 380.671 169.743 368.636 164.384C368.906 163.786 369.205 163.157 369.474 162.558V162.528Z" fill="#D9D9D9"/>
<path d="M423.331 103.882C408.572 113.102 391.837 117.802 375.462 123.341C391.059 116.186 406.656 109.031 422.253 101.876L423.331 103.912V103.882Z" fill="#D9D9D9"/>
<path d="M440.904 165.881C457.639 168.785 474.344 171.659 491.079 174.563C490.959 175.132 490.839 175.731 490.749 176.299C474.015 173.635 457.25 170.971 440.515 168.336C440.665 167.528 440.784 166.69 440.934 165.881H440.904Z" fill="#D9D9D9"/>
<path d="M244.906 169.564C237.212 170.911 229.459 172.138 221.795 173.635C212.634 175.461 203.503 177.497 193.774 178.605C195.51 177.706 197.127 176.329 198.953 175.97C211.736 173.366 224.549 170.881 237.392 168.665C239.787 168.246 242.421 169.294 244.936 169.653L244.876 169.594L244.906 169.564Z" fill="#D9D9D9"/>
<path d="M335.765 50.7134C334.807 51.5816 333.909 52.5096 332.891 53.258C330.676 54.8746 327.652 58.1677 326.245 57.5989C323.611 56.5212 321.695 53.3179 319.899 50.7134C319.45 50.0248 320.437 47.2407 320.976 47.1808C323.97 46.7617 327.113 46.4324 330.017 47.0311C332.083 47.4802 333.849 49.4261 335.765 50.7134Z" fill="#D9D9D9"/>
<path d="M289.632 169.534C275.831 171.749 262 173.964 248.199 176.18C248.05 175.371 247.93 174.533 247.78 173.725C261.581 171.51 275.412 169.264 289.213 167.049C289.363 167.887 289.482 168.725 289.632 169.564V169.534Z" fill="#D9D9D9"/>
<path d="M291.818 120.317C280.112 116.306 268.377 112.264 256.672 108.252C256.672 107.594 256.701 106.935 256.731 106.277C257.959 105.917 259.426 104.9 260.354 105.259C271.011 109.63 281.579 114.24 292.177 118.79C292.057 119.299 291.937 119.808 291.818 120.347V120.317Z" fill="#D9D9D9"/>
<path d="M475.032 182.856C454.765 180.73 434.498 178.635 414.23 176.509C414.26 176.09 414.32 175.671 414.35 175.222C434.617 177.317 454.915 179.413 475.182 181.479L475.032 182.826V182.856Z" fill="#D9D9D9"/>
<path d="M196.019 182.017C211.796 179.173 227.573 176.359 243.379 173.515C243.499 174.264 243.649 174.982 243.769 175.731C227.932 178.245 212.095 180.76 196.258 183.275C196.169 182.856 196.109 182.437 196.019 182.017Z" fill="#D9D9D9"/>
<path d="M318.791 163.726C308.852 168.456 298.943 173.156 289.004 177.886C295.799 166.39 309.121 168.276 318.252 161.6C318.432 162.319 318.611 163.037 318.791 163.756V163.726Z" fill="#D9D9D9"/>
<path d="M408.482 118.79C397.256 122.143 386 125.496 374.773 128.849C374.653 128.43 374.534 128.011 374.414 127.622C385.551 123.82 396.687 120.048 407.824 116.246C408.033 117.084 408.273 117.952 408.482 118.79Z" fill="#D9D9D9"/>
<path d="M297.446 110.168C302.146 113.342 306.666 116.425 311.726 119.838C301.098 120.167 296.368 116.964 297.446 110.168Z" fill="#D9D9D9"/>
<path d="M384.533 178.096C377.977 174.982 371.39 171.899 364.834 168.785L366.002 166.6C371.75 171.15 380.85 169.863 384.473 178.156L384.533 178.096Z" fill="#D9D9D9"/>
<path d="M311.456 134.358C306.068 133.669 300.709 126.963 295.62 134.358H311.456Z" fill="#D9D9D9"/>
<path d="M444.347 195.16C438.06 197.375 432.881 197.046 430.187 189.651C429.708 188.334 427.552 187.616 427.163 185.67C428.81 187.376 430.187 189.472 432.133 190.669C434.019 191.837 436.503 191.927 438.659 192.705C440.605 193.393 442.431 194.351 444.317 195.22L444.377 195.16H444.347Z" fill="#D9D9D9"/>
<path d="M521.225 69.933C513.651 72.8968 506.047 75.8605 498.473 78.8542C498.204 77.9861 497.904 77.1179 497.635 76.2797C505.508 74.1841 513.412 72.1184 521.285 70.0228L521.225 69.9629V69.933Z" fill="#D9D9D9"/>
<path d="M305.02 128.4C294.602 125.676 284.154 122.952 273.736 120.197C273.855 119.718 273.975 119.209 274.095 118.73C284.453 121.694 294.841 124.628 305.199 127.592C305.14 127.861 305.08 128.131 305.02 128.4Z" fill="#D9D9D9"/>
<path d="M625.197 10.2085C635.286 8.98111 645.375 7.78362 655.463 6.5562C655.523 6.97532 655.553 7.42438 655.613 7.8435C645.464 8.62186 635.316 9.3703 625.167 10.1487L625.227 10.2085H625.197Z" fill="#D9D9D9"/>
<path d="M258.288 188.035C263.826 186.328 269.395 184.652 274.933 182.945C275.113 183.544 275.292 184.143 275.472 184.742C269.904 186.328 264.305 187.915 258.737 189.502C258.587 189.023 258.438 188.514 258.288 188.035Z" fill="#D9D9D9"/>
</svg>
